<svg clip-rule="evenodd" fill-rule="evenodd" stroke-linejoin="round" stroke-miterlimit="2" viewBox="0 0 309 121" xmlns="http://www.w3.org/2000/svg"><path d="m55.573 8.274h-7.033l.138 7.998c-4.229-6.619-11.813-9.929-22.753-9.929-8.55 0-15.005 1.996-19.365 5.989-4.373 4.006-6.56 9.272-6.56 15.799 0 6.895 1.839 11.879 5.516 14.952 3.677 3.086 9.791 5.733 18.341 7.939l10.756 2.896c5.332 1.379 9.055 3.08 11.17 5.102 2.114 2.023 3.172 4.689 3.172 7.998 0 9.285-6.251 13.928-18.754 13.928-14.158 0-22.018-7.217-23.581-21.65h-6.343v27.856h7.033l-.276-10.205c4.781 8.09 12.917 12.135 24.408 12.135 18.111 0 27.166-7.355 27.166-22.064 0-6.527-1.812-11.334-5.437-14.42-3.638-3.073-9.686-5.759-18.144-8.057l-10.756-2.896c-5.424-1.379-9.213-3.06-11.367-5.043-2.167-1.97-3.25-4.84-3.25-8.609 0-4.045 1.313-7.309 3.94-9.791 2.614-2.482 6.724-3.723 12.332-3.723 4.137 0 7.447.25 9.929.749 2.482.512 4.735 1.523 6.757 3.034 2.023 1.523 3.539 3.71 4.551 6.56 1.011 2.85 1.701 6.619 2.068 11.308h6.343v-27.856zm71.57 69.915 2.482 8.963h14.755v-6.895h-8.274v-51.85c0-14.709-9.101-22.064-27.304-22.064-5.516 0-10.113.552-13.79 1.655s-6.501 2.824-8.471 5.161c-1.983 2.351-3.408 4.859-4.275 7.525-.88 2.666-1.458 5.976-1.734 9.929l8.136.414c.368-5.7 1.865-9.883 4.492-12.549 2.614-2.666 7.827-3.999 15.642-3.999 11.767 0 17.651 4.643 17.651 13.928v13.79l-25.511 1.655c-9.285.644-15.583 2.712-18.892 6.205-3.31 3.493-4.964 9.193-4.964 17.099 0 7.263 1.727 12.733 5.181 16.41 3.441 3.677 9.482 5.516 18.124 5.516 9.745 0 18.662-3.631 26.752-10.894zm-25.373 3.034c-5.608 0-9.561-1.129-11.859-3.388-2.298-2.246-3.447-5.667-3.447-10.264 0-6.251 1.038-10.461 3.113-12.628 2.062-2.154 6.035-3.415 11.918-3.782l24.96-1.517v20.823c-7.538 7.171-15.766 10.756-24.684 10.756zm91.427-19.444c4.964 0 9.239-.532 12.825-1.596 3.585-1.051 6.37-2.384 8.353-3.999 1.97-1.602 3.533-3.69 4.689-6.265 1.143-2.574 1.878-5.037 2.206-7.387.315-2.338.473-5.161.473-8.471 0-8.642-1.471-14.985-4.413-19.03l9.239-9.239-5.792-5.792-9.791 9.791c-4.597-2.298-10.526-3.447-17.789-3.447-4.964 0-9.213.525-12.746 1.576-3.546 1.064-6.33 2.397-8.353 3.999-2.023 1.615-3.585 3.71-4.689 6.284-1.103 2.574-1.812 5.03-2.128 7.368-.328 2.351-.492 5.181-.492 8.491 0 10.664 2.39 18.019 7.171 22.064l-5.93 5.654c-4.045 4.045-6.068 8.32-6.068 12.825 0 5.516 2.528 9.331 7.584 11.446-5.332 4.321-7.998 9.469-7.998 15.445 0 4.137.762 7.493 2.285 10.067 1.51 2.574 3.855 4.485 7.033 5.733 3.165 1.235 6.448 2.062 9.85 2.482 3.402.407 7.768.611 13.1.611 4.413 0 7.952-.066 10.618-.197 2.666-.144 5.772-.63 9.318-1.458 3.533-.827 6.265-1.977 8.195-3.447 1.931-1.471 3.612-3.651 5.043-6.54 1.418-2.902 2.128-6.422 2.128-10.559 0-5.976-1.766-10.526-5.299-13.652-3.546-3.126-8.583-4.689-15.11-4.689h-31.579c-4.872 0-7.309-1.977-7.309-5.93 0-3.034 1.195-5.7 3.585-7.998l6.619-6.343c4.137 1.471 9.193 2.206 15.169 2.206zm0-7.309c-7.814 0-12.936-1.655-15.366-4.964-2.443-3.31-3.664-8.458-3.664-15.445s1.221-12.135 3.664-15.445c2.43-3.31 7.552-4.964 15.366-4.964 7.906 0 13.081 1.655 15.523 4.964 2.43 3.31 3.644 8.458 3.644 15.445s-1.215 12.135-3.644 15.445c-2.443 3.31-7.617 4.964-15.523 4.964zm-1.379 58.607c-3.861 0-7.007-.112-9.436-.335-2.443-.236-4.879-.742-7.309-1.517-2.443-.788-4.235-2.029-5.378-3.723-1.156-1.707-1.734-3.894-1.734-6.56 0-5.7 2.114-10.296 6.343-13.79h29.648c9.469 0 14.204 3.723 14.204 11.17 0 6.435-1.95 10.507-5.851 12.214-3.914 1.694-10.743 2.541-20.488 2.541zm99.701-34.888 2.482 8.963h14.755v-6.895h-8.274v-51.85c0-14.709-9.101-22.064-27.304-22.064-5.516 0-10.113.552-13.79 1.655s-6.501 2.824-8.471 5.161c-1.983 2.351-3.408 4.859-4.275 7.525-.88 2.666-1.458 5.976-1.734 9.929l8.136.414c.368-5.7 1.865-9.883 4.492-12.549 2.614-2.666 7.827-3.999 15.642-3.999 11.767 0 17.651 4.643 17.651 13.928v13.79l-25.511 1.655c-9.285.644-15.583 2.712-18.892 6.205-3.31 3.493-4.964 9.193-4.964 17.099 0 7.263 1.727 12.733 5.181 16.41 3.441 3.677 9.482 5.516 18.124 5.516 9.745 0 18.662-3.631 26.752-10.894zm-25.373 3.034c-5.608 0-9.561-1.129-11.859-3.388-2.298-2.246-3.447-5.667-3.447-10.264 0-6.251 1.038-10.461 3.113-12.628 2.062-2.154 6.035-3.415 11.918-3.782l24.96-1.517v20.823c-7.538 7.171-15.766 10.756-24.684 10.756z" fill="#ff5758" fill-rule="nonzero"/></svg>