<svg clip-rule="evenodd" fill-rule="evenodd" stroke-linejoin="round" stroke-miterlimit="2" viewBox="0 0 509 509" xmlns="http://www.w3.org/2000/svg"><circle cx="253.94" cy="253.934" fill="#fff" r="251"/><g fill="#ff5758" fill-rule="nonzero"><path d="m395.799 457.304c6.505-37.697-5.221-69.964-9.672-80.393.494-.148.972-.296 1.43-.439 1.91-.599 3.291-1.029 5.03-1.029 3.05 0 5.403-.462 7.104-.988.83 1.744 1.65 3.783 2.552 6.029 5.326 13.254 13.145 32.725 41.321 32.723.128 0 .263-.006.393-.006-14.036 16.721-30.232 31.563-48.158 44.102m-57.534 29.89c16.233-49.531 11.753-85.873 9.961-96.004 8.189-3.716 11.711-7.268 14.086-9.682 4.149 16.654 13.862 65.979-6.654 98.635-5.686 2.562-11.49 4.913-17.393 7.051m-248.684-48.075c1.087-2.408 1.999-4.682 2.809-6.715 3.106-7.803 4.805-11.515 10.079-12.952 1.292 4.486 4.514 13.197 11.974 23.479 8.965 12.355 25.945 29.264 56.74 42.293-1.27.314-2.554.626-3.854.936-28.845-10.834-55.143-26.901-77.748-47.042m-43.492-50.708c7.136-11.316 19.449-27.353 31.492-26.247 10.668.968 19.457-2.234 27.213-5.063 8.829-3.218 15.802-5.759 22.932-1.418 6.689 4.072 14.09 5.399 21.243 6.683 10.038 1.802 17.966 3.226 21.67 11.31 2.349 5.121 6.146 7.867 10.634 9.163.358 4.145-3.961 10.783-8.677 14.489-2.837 2.228-8.688 3.299-14.886 4.431-4.862.889-9.888 1.81-14.742 3.426-4.449 1.482-5.688 1.051-6.594.737-3.042-1.061-5.15-.462-9.394 2.663-4.409 3.248-7.566 3.285-12.8 3.341-2.934.034-6.259.071-10.47.672-11.035 1.578-13.957 8.916-17.341 17.412-.579 1.456-1.179 2.949-1.837 4.494-14.585-13.734-27.513-29.206-38.444-46.091m-30.297-201.589c4.548-1.693 9.334-2.558 14.252-2.558.996 0 2.07.045 3.289.144l1.78.14 1.071-1.426c5.615-7.491 14.194-11.786 23.543-11.786 3.376 0 6.691.573 9.862 1.699l3.793 1.351.506-3.995c1.173-9.279 9.119-16.275 18.483-16.275 8.951 0 16.652 6.375 18.309 15.158l.656 3.479 3.406-.962c1.069-.302 2.147-.456 3.204-.456 6.49 0 11.77 5.281 11.77 11.77 0 6.49-5.281 11.77-11.77 11.77-4.168 0-8.066-2.25-10.172-5.873l-1.778-3.058-2.89 2.041c-3.157 2.228-6.869 3.406-10.735 3.406-.095 0-.188-.004-.279-.006l-4.236-.109.749 3.945c.35 1.833.527 3.692.527 5.52 0 1.098-.067 2.207-.202 3.386l-.352 3.066 3.046.5c14.269 2.331 24.625 14.534 24.625 29.013 0 16.213-13.193 29.406-29.406 29.406-9.163 0-17.644-4.17-23.266-11.434l-2.232-2.886-2.6 2.56c-7.709 7.582-17.9 11.76-28.703 11.76-8.519 0-16.606-2.562-23.509-7.424-.028-1.499-.055-2.999-.055-4.502 0-23.341 3.248-45.937 9.313-67.364m238.393-180.344c95.875 0 179.196 54.752 220.353 134.628-1.503-.294-3.023-.518-4.552-.672-5.751-12.063-17.835-19.75-31.326-19.75-13.811 0-26.358 8.386-31.814 20.832-5.192-2.805-10.98-4.271-16.956-4.271-4.186 0-8.246.713-12.114 2.11-1.029-3.046-2.195-6.11-3.511-9.19-10.152-23.766-25.036-39.855-25.666-40.526l-.802-.859-89.301-11.067 1.985-23.416.634.695v-30.544l-.848-.929c-11.298-12.349-23.159-5.865-32.691-.656-10.502 5.739-17.318 8.841-24.805.656l-5.63-6.152v30.544l.849.929c4.789 5.231 9.676 7.082 14.445 7.082 6.486 0 12.754-3.426 18.246-6.426 10.05-5.492 16.725-8.562 23.843-1.644l-2.464 29.062-133.802-16.581 9.172 13.343c28.478 53.982 24.56 112.825 16.247 152.7-4.959 23.79-12.027 43.853-17.434 57.192v-.484h-118.073c-.638-5.48-1.112-11.008-1.387-16.589 7.059 3.997 14.983 6.093 23.258 6.093 11.351 0 22.122-3.981 30.688-11.278 6.766 7.207 16.107 11.278 26.113 11.278 19.787 0 35.884-16.095 35.884-35.882 0-16.668-11.247-30.86-27.14-34.807.014-.389.022-.776.022-1.158 0-1.015-.045-2.039-.134-3.062 3.023-.371 5.933-1.29 8.621-2.714 3.435 4.002 8.497 6.389 13.849 6.389 10.059 0 18.248-8.187 18.248-18.248s-8.189-18.248-18.248-18.248c-.567 0-1.136.028-1.705.083-3.323-10.194-12.9-17.304-23.871-17.304-11.34 0-21.136 7.616-24.153 18.236-2.774-.674-5.615-1.015-8.491-1.015-10.81 0-20.781 4.708-27.626 12.979-.717-.036-1.399-.051-2.057-.051-4.089 0-8.1.52-11.994 1.537 31.81-100.107 125.633-172.845 236.135-172.845m244.926 210.583-.085-.067c-1.912 2.414-4.089 4.633-6.468 6.592l-1.76 1.448.77 2.145c1.094 3.058 1.65 6.262 1.65 9.528 0 15.569-12.665 28.235-28.235 28.235-15.567 0-28.235-12.665-28.235-28.235 0-3.264.557-6.47 1.652-9.528l.768-2.145-1.76-1.448c-3.131-2.58-5.895-5.595-8.208-8.961l-3.297-4.795-2.337 5.332c-2.855 6.505-9.283 10.707-16.379 10.707-9.862 0-17.881-8.021-17.881-17.881 0-.719.045-1.446.142-2.217l.401-3.254-3.256-.364c-2.9-.324-5.696-1.069-8.345-2.219 6.235-16.802 6.725-35.181 1.428-54.377 3.252-1.213 6.675-1.835 10.212-1.835 6.031 0 11.832 1.823 16.768 5.275l3.671 2.568 1.288-4.291c3.552-11.843 14.672-20.115 27.043-20.115 11.523 0 21.788 6.897 26.146 17.571l.77 1.889 2.035.121c3.645.217 7.234.897 10.69 2.011 10.059 21.294 17.177 44.236 20.81 68.308m-195.476 222.942c4.028-17.845 4.247-33.695 4.046-41.267 4.117-1.387 8.005-2.124 11.008-1.622 1.847.31 3.331.597 4.524.828.982.192 1.833.346 2.598.462.391 15.382-.417 68.885-28.292 99.688-10.5 1.861-21.227 3.048-32.134 3.536 18.837-12.724 31.964-33.786 38.251-61.625m-33.778-1.414c4.382-8.471 4.273-15.429 3.653-19.285 2.394-.966 4.613-2.191 6.513-4.111 1.557-1.571 2.813-1.766 3.645-1.895.666-.105 2.693-.419 3.311-2.517.194-.658.2-1.229.063-1.75.512-.324 1.055-.662 1.624-1.008-.705 7.029-2.853 20.091-9.398 34.216-12.966 27.97-36.077 46.342-68.698 54.61l.318 1.249c-11.075-1.96-21.895-4.668-32.415-8.054 61.6-16.174 83.757-36.71 91.383-51.455m-139.594-24.396c1.774 5.178 5.581 14.734 12.464 25.443 8.442 13.128 23.134 30.226 46.498 40.688-3.143.936-6.419 1.861-9.818 2.776-33.557-12.798-51.508-30.305-60.685-42.854-6.808-9.311-9.911-17.308-11.217-21.571 2.535-.225 4.741-.251 6.748-.273 5.449-.061 10.182-.126 16.01-4.21m27.725-5.901c.774 5.148 3.246 11.571 8.957 14.765.055 3.667.774 11.188 5.053 19.75 4.805 9.617 15.143 22.292 37.279 30.828-3.904 1.464-8.062 2.916-12.497 4.35-25.394-9.572-41.024-27.448-49.715-40.925-6.756-10.472-10.474-19.951-12.124-24.797 2.027.608 4.674.869 10.079-.932 4.137-1.381 8.605-2.236 12.967-3.038m93.382 42.526c-21.832-1.205-30.969-17.928-34.307-26.858 2.993.929 6.355 1.482 11.144.929 3.825-.443 7.797.115 11.677.729 1.525 3.21 6.669 11.956 19.307 17.351-2.07 2.519-4.639 5.15-7.821 7.849m-15.354 10.553c-17.339-1.251-30.799-8.424-39.999-21.377-4.969-6.991-7.361-13.953-8.37-17.626.324-.134.644-.267.96-.401 4.17-1.75 7.776-3.264 13.228-2.535 3.943.525 6.729 1.387 9.206 2.302.932 3.222 3.125 9.447 7.481 15.745 4.893 7.074 13.392 15.338 27.154 17.752-2.845 2.027-6.047 4.08-9.66 6.14m-17.543 8.594c-19.674-6.063-33.675-16.324-40.513-29.718-3.155-6.183-4.143-11.772-4.429-15.247 3.605.352 6.65-.117 9.358-.905 1.158 4.127 3.72 11.3 8.892 18.637 6.239 8.85 17.434 19.347 36.473 22.756-3.025 1.494-6.28 2.989-9.781 4.477m45.461-34.029c-.492.925-1.047 1.877-1.677 2.849-8.799-3.471-13.619-8.694-16.041-12.248 1.349.148 2.695.245 4.026.245 3.104 0 6.124-.514 8.926-2.062 2.746-1.519 5.462-2.462 8.108-3.307.302 3.025.036 8.157-3.341 14.524m-56.433-54.904c4.241-.954 8.25-1.853 10.962-1.902 6.646-.128 22.454-1.561 33.158-5.935.049.486.132.98.259 1.484.802 3.159 2.221 6.326 3.862 9.99 1.215 2.708 2.59 5.776 3.85 9.198 2.442 6.626 10.03 10.757 15.571 13.77.804.439 1.59.867 2.307 1.272-.666.458-1.355 1.023-2.053 1.727-2.041 2.062-5.042 3.007-8.843 4.204-3.185 1.004-6.796 2.138-10.543 4.212-3.635 2.009-8.503 1.231-14.137.328-4.405-.705-9.4-1.505-14.429-.925-5.377.62-8.157-.464-12.005-1.964-3.088-1.205-6.93-2.701-12.768-3.481-7.201-.954-12.189 1.136-16.593 2.985-4.066 1.705-7.582 3.177-12.738 2.467-6.642-.917-8.481-7.592-8.989-11.383 4.959-1.031 9.2-2.282 12.227-4.66 5.127-4.028 10.901-11.668 11.168-18.629 6.519.202 13.657-1.397 19.734-2.758m-27.322-91.47h29.513v5.227c-1.14.502-2.292 1.004-3.443 1.503h-35.56c3.202-1.938 6.43-4.178 9.491-6.731m40.453.296-4.463 2.023v-26.826c1.464-.168 2.957-.427 4.463-.735zm44.383-24.208c.946 0 1.891-.016 2.831-.045-12.385 7.175-25.994 14.273-40.738 21.243v-23.993c5.097-1.168 10.135-2.112 13.359-.701 4.546 1.987 14.595 3.497 24.548 3.497m-68.348.089c.848-2.991 1.646-5.954 2.4-8.854 2.531 3.305 6.13 6.766 10.624 7.946v18.254h-22.806c4.364-4.931 7.9-10.698 9.781-17.345m-76.493 69.278c6.205-1.883 27.644-8.56 55.128-19.104h1.158v-.444c9.169-3.53 18.985-7.483 29.122-11.828 1.383-.593 2.746-1.187 4.111-1.782v.069l4.937-2.236c3.817-1.693 7.562-3.39 11.235-5.091l1.245-.567v-.01c51.755-24.108 89.105-49.217 111.178-74.794l.531-.616.178-.798c.17-.765 3.965-18.983-14.141-36.585-8.769-8.526-9.396-19.765-6.128-27.122 2.995-6.741 8.862-10.488 16.148-10.383l3.183 2.924-6.292 3.898-.178.119c-.336.239-8.232 5.978-8.562 14.807-.213 5.757 2.764 11.247 8.845 16.316l.79.66c14.194 11.824 22.841 19.032 26.856 31.281-5.395 5.518-27.824 27.571-64.15 51.585-37.763 24.967-98.562 57.105-175.245 69.954.02-.083.036-.166.053-.251m266.322-17.164c-4.026 1.816-16.61 7.424-36.275 15.629 16.148-15.852 24.501-39.062 24.293-67.967-.121-16.565-2.963-31.115-5.053-39.626 8.226 5.725 21.324 17.887 22.225 37.695 1.189 26.148-3.769 48.498-5.19 54.268m3.453 5.549h10.737c-3.959 2.124-7.928 4.008-11.697 4.951-4.425 1.106-10.785 2.262-17.932 3.345 10.439-4.488 16.921-7.402 18.892-8.295m-135.309-283.604c-9.52-5.575-19.106-.338-27.063 4.01-10.103 5.522-16.794 8.604-23.955 1.539v-12.79c9.522 5.575 19.106.336 27.063-4.012 10.101-5.522 16.794-8.602 23.955-1.539zm-98.872 112.891c-2.015-29.886-9.653-57.546-22.695-82.208l-1.314-1.95 40.574 5.03.365.352c.373.364.745.741 1.11 1.13.729.776 1.45 1.578 2.141 2.416 1.389 1.663 2.72 3.398 3.965 5.206 2.501 3.603 4.712 7.44 6.681 11.403 3.918 7.946 6.881 16.417 8.904 25.129 2.088 8.704 3.234 17.648 3.757 26.632.512 8.991.34 18.039-.397 27.051l3.044.296c1.031-9.109 1.499-18.301 1.262-27.506-.247-9.198-1.134-18.422-3.009-27.496-1.814-9.082-4.613-18.013-8.483-26.526-1.952-4.249-4.168-8.396-6.735-12.355-1.006-1.559-2.092-3.076-3.218-4.569l47.806 5.925c.97 3.092 1.887 6.266 2.756 9.417 1.057 3.85 2.041 7.722 2.959 11.61 1.825 7.778 3.392 15.623 4.587 23.521 1.191 7.894 2.029 15.848 2.284 23.815.257 7.965-.091 15.958-1.501 23.78l2.234.468c1.8-7.977 2.507-16.144 2.6-24.279.091-8.139-.409-16.269-1.274-24.347-.863-8.078-2.106-16.109-3.619-24.088-.763-3.989-1.59-7.965-2.495-11.928-.547-2.386-1.114-4.751-1.717-7.124l43.63 5.405c.326.921.648 1.861.956 2.789.52 1.571 1.023 3.153 1.499 4.743.97 3.179 1.855 6.389 2.681 9.615 1.646 6.454 3.042 12.979 4.174 19.552 2.246 13.143 3.532 26.476 3.471 39.811.036 3.337-.13 6.665-.241 9.996-.231 3.325-.407 6.656-.802 9.965-.284 3.323-.832 6.61-1.284 9.911-.616 3.273-1.122 6.573-1.918 9.807-2.833 13.027-7.497 25.627-13.683 37.443l2.746 1.503c6.575-11.946 11.622-24.762 14.799-38.039.883-3.301 1.474-6.662 2.173-10.002.533-3.368 1.162-6.729 1.527-10.121.47-3.382.723-6.782 1.027-10.182.188-3.404.427-6.81.46-10.22.342-13.643-.689-27.29-2.708-40.773-1.017-6.743-2.307-13.446-3.858-20.093-.774-3.325-1.616-6.634-2.546-9.929-.452-1.638-.934-3.273-1.44-4.905l33.669 4.174c.636 2.193 1.247 4.429 1.825 6.65.768 2.949 1.482 5.913 2.145 8.888.65 2.975 1.241 5.958 1.754 8.953.488 2.995.895 5.996 1.156 8.999l3.659-.152c-.032-3.151-.217-6.282-.486-9.402-.29-3.111-.66-6.211-1.092-9.299-.444-3.086-.944-6.16-1.495-9.226-.281-1.539-.567-3.064-.869-4.595l17.359 2.151c3.149 3.595 15.334 18.189 23.748 37.966 12.327 28.973 11.363 55.333-2.843 78.404-4.599-13.704-14.179-21.692-28.726-33.811l-.792-.66c-4.447-3.706-6.638-7.428-6.519-11.065.178-5.306 5.18-9.293 5.794-9.763l13.444-8.323-11.193-10.281-1.14-.075c-10.532-.684-19.349 4.615-23.596 14.175-5.024 11.308-1.997 25.131 7.535 34.396 13.659 13.28 12.89 26.545 12.452 29.799-11.841 13.536-28.651 27.241-49.847 40.759-6.079 3.119-19.931 3.216-30.001 1.968.792-1.717 1.545-3.428 2.288-5.166 1.219-2.863 2.369-5.753 3.457-8.665 2.161-5.83 4.097-11.751 5.662-17.788 1.573-6.029 2.799-12.177 3.441-18.424.646-6.239.676-12.612-.389-18.906l-3.823.608c.774 5.842.549 11.839-.279 17.76-.822 5.927-2.211 11.798-3.935 17.571-1.717 5.778-3.799 11.458-6.099 17.045-1.158 2.791-2.375 5.561-3.655 8.295-1.031 2.195-2.11 4.411-3.218 6.533-1.343-.324-2.479-.676-3.333-1.047-5.587-2.444-12.549-.816-19.281.761-3.965.927-7.709 1.804-10.85 1.804-5.129 0-9.795-6.891-11.705-10.536 4.141-17.229 6.361-30.427 6.391-30.601l-6.389-1.065c-.04.227-3.838 22.816-10.794 47.395-6.764 23.898-38.782 35.1-43.912 35.467-4.293.306-14.125.198-20.164.095 4.856-10.362 16.419-37.188 23.626-71.657 5.447-26.054 7.392-51.352 5.784-75.191m-96.622 210.111c-6.361 5.123-12.102 12.353-16.859 19.556-3.848-6.338-7.408-12.865-10.688-19.556zm12.053-6.478h-42.668c-1.385-3.048-2.697-6.136-3.961-9.248h27.259v-6.478h-29.787c-1.187-3.179-2.305-6.391-3.366-9.627h77.997v-6.48h-80.014c-.844-2.841-1.652-5.696-2.392-8.578h57.34v-6.48h-58.909c-.506-2.209-.976-4.431-1.422-6.664h19.872v-6.478h-21.071c-.383-2.234-.737-4.479-1.059-6.731h114.722c-1.156 2.681-2.177 4.941-3.011 6.731h-74.909v6.478h71.702l-1.578 3.011 5.206.13c.51.012 8.594.211 15.984.211 3.868 0 7.551-.055 9.852-.219 1.812-.128 5.767-1.158 10.713-3.133h33.191c-5.775 2.365-11.393 4.589-16.784 6.664h-22.904v6.48h5.557c-9.735 3.524-18.207 6.403-24.829 8.578h-23.912v6.48h6.456l-.174.717c-.727 2.991-1.298 5.968-1.727 8.91h-49.412v6.478h48.713c-.02.298-.043.601-.063.899-3.05.788-6.114 1.902-9.236 3.04-7.464 2.72-15.18 5.535-24.406 4.696-2.359-.213-4.684.02-6.97.612m154.012-20.04c-6.332 3.202-12.993 5.753-19.781 7.916-6.826 2.08-13.777 3.757-20.785 5.18-7.019 1.371-14.098 2.464-21.2 3.331-3.55.433-7.112.804-10.674 1.106-3.394.3-6.841.539-10.188.686-4.05-.946-7.987-2.222-11.488-4.354-4.34-2.643-8.544-3.459-12.721-3.248.126-1.606.31-3.232.537-4.868 78.965-12.788 141.51-45.825 180.205-71.432 32.13-21.263 53.581-41.054 62.178-49.495l.032.16.198.087c.693 2.345 2.151 7.651 3.518 14.836-7.527 6.808-15.277 13.483-23.112 19.998-8.323 6.914-16.798 13.653-25.453 20.145-8.661 6.482-17.509 12.723-26.678 18.452-4.591 2.849-9.263 5.573-14.058 8.056-4.793 2.477-9.726 4.71-14.856 6.367l.273.925c5.275-1.46 10.362-3.509 15.309-5.81 4.951-2.302 9.777-4.85 14.528-7.525 9.487-5.383 18.659-11.288 27.648-17.44 8.987-6.162 17.796-12.576 26.462-19.177 7.15-5.453 14.194-11 21.164-16.713.978 6.622 1.719 14.226 1.766 22.257.194 31.986-10.067 55.499-30.493 69.928-10.476.889-18.829 1.189-21.091.48-4.279-1.345-10.504.04-17.719 1.642-7.209 1.6-15.38 3.418-21.506 2.323-12.505-2.228-16.529 9.198-19.187 16.763-.713 2.029-1.393 3.951-2.136 5.532-.45.472-1.144 1.256-1.841 2.284-5.875 4.617-23.876 7.75-35.726 7.975-3.366.067-7.487.99-12.256 2.059-14.303 3.208-25.564 4.972-29.552-3.734-3.161-6.893-8.501-10.267-14.587-12.286.763-.117 1.525-.223 2.286-.344 7.197-1.144 14.356-2.517 21.456-4.174 7.088-1.709 14.123-3.678 21.034-6.065 6.883-2.471 13.643-5.342 20.083-8.9l-1.592-2.922zm28.975 165.61c-11.705 0-23.221-.836-34.499-2.412 37.198-11.877 55.379-36.192 64.152-55.124 8.206-17.705 9.82-33.574 10.135-39.406 2.724-1.492 5.697-2.989 8.688-4.277.093 7.906-.367 22.45-3.971 38.349-6.912 30.493-21.581 51.625-43.608 62.858-.3 0-.597.012-.897.012m78.058-12.612c-8.07 2.687-16.326 4.963-24.738 6.816 14.192-19.214 20.22-43.853 22.762-62.125 2.221-15.974 2.221-29.426 2.025-35.996 1.555-.508 3.43-1.326 6.142-2.529 1.399-.618 3.038-1.343 4.998-2.191 1.766 11.385 5.332 48.014-11.189 96.025m57.654-27.98c-8.459 5.561-17.272 10.617-26.407 15.129 10.091-20.407 10.741-44.855 9.263-62.783-1.296-15.751-4.309-28.772-5.994-35.153 1.047-.211 2.383-.249 4.307-.124 4.247.277 7.458.083 10.046-.312 3.977 9.232 17.162 44.072 8.785 83.244m7.841-95.879c-.369 1-.518 2.003-.472 2.993-1.104.29-2.655.549-4.68.549-2.726 0-4.783.642-6.96 1.324-3.153.984-6.727 2.1-14.141 1.618-7.888-.512-10.368 1.571-13.748 5.012-2.434 2.475-5.464 5.559-13.781 9.07-3.453 1.46-6.055 2.612-8.145 3.536-3.445 1.527-5.344 2.369-6.61 2.584-1.025.176-2.023.004-4.759-.527-1.227-.237-2.756-.531-4.682-.853-12.12-2.029-31.03 9.449-37.356 13.586-1.199-.761-2.608-1.531-4.145-2.367-4.639-2.523-10.99-5.978-12.588-10.32-1.337-3.627-2.762-6.804-4.016-9.605-1.519-3.39-2.831-6.32-3.495-8.935-.395-1.563.241-3.149.984-4.348.996-.923 1.8-1.916 2.341-2.997 1.011-2.023 1.818-4.311 2.667-6.735 3.295-9.378 5.539-13.675 11.94-12.533 7.398 1.318 16.243-.646 24.046-2.377 5.778-1.282 11.749-2.608 14.372-1.784 8.704 2.734 61.07-3.929 76.051-7.675 6.176-1.545 12.294-4.98 18.213-8.305 11.089-6.227 18.167-9.684 22.958-5.19 7.817 7.327 12.59 16.245 14.331 20.382-1.517.524-3.627 1.207-5.694 1.875-19.819 6.411-39.432 13.39-42.63 22.023m51.716 41.001c-19.117 1.818-28.576-5.208-34.404-14.21h44.728c-3.275 4.862-6.721 9.599-10.324 14.21m32.073-53.923c-.814 1.871-1.648 3.73-2.505 5.575h-34.91v6.48h31.789c-1.134 2.27-2.298 4.526-3.499 6.756h-12.971v6.476h9.358c-1.551 2.683-3.159 5.328-4.807 7.946h-52.473c-1.207-2.572-2.254-5.172-3.256-7.663-.04-.095-.075-.188-.115-.283h41.307v-6.476h-44.084c-.466-.956-.942-1.861-1.446-2.685-.217-.356-.241-.579-.101-.954.367-.998 1.32-2.045 2.695-3.117h22.045v-6.48h-9.874c4.846-2.055 10.16-3.981 14.811-5.575h21.512v-6.478h-3.177c.851-.624 1.424-1.466 1.424-2.738 0-.895-.61-2.91-1.808-5.575h35.945c-1.004 2.793-2.055 5.565-3.153 8.313h-16.948v6.478h14.24zm16.911-57.052c-.364 2.169-.759 4.328-1.179 6.476h-66.527v6.478h65.169c-.64 2.859-1.326 5.701-2.064 8.521h-13.315v6.48h11.517c-.767 2.627-1.578 5.237-2.43 7.829h-41.585c-1.499-2.493-3.313-5.164-5.439-7.829h23.924v-6.48h-29.815c-.178-.17-.352-.338-.529-.506-6.774-6.349-15.131-3.817-23.645.506h-19.137c.484-2.122 1.094-5.01 1.717-8.521h22.565v-6.478h-21.52c.294-2.033.579-4.194.84-6.476h51.05v-6.478h-50.412c.194-2.292.354-4.668.474-7.122l102.189.486c-.253 2.222-.535 4.433-.846 6.636h-37.591v6.478zm3.455-41.263c0 7.304-.336 14.528-.958 21.674l-102.62-.49c.069-3.892.03-7.93-.16-12.077-1.316-28.975-24.765-43.17-31.101-46.485-.069-.314-.142-.618-.215-.925l2.414 1.608c2.505-3.754 4.666-7.62 6.502-11.581 2.278.982 4.641 1.723 7.074 2.209.071 13.372 10.968 24.228 24.358 24.228 7.904 0 15.198-3.827 19.722-10.063 1.456 1.723 3.029 3.345 4.702 4.854-.889 3.104-1.339 6.314-1.339 9.57 0 19.139 15.571 34.712 34.712 34.712s34.714-15.573 34.714-34.712c0-3.258-.452-6.466-1.341-9.57.632-.571 1.249-1.164 1.853-1.764 1.098 9.455 1.683 19.066 1.683 28.811m-13.499-98.941c-12.802-30.269-31.129-57.451-54.472-80.794-23.345-23.343-50.527-41.672-80.796-54.474-31.34-13.256-64.626-19.977-98.941-19.977-34.313 0-67.601 6.721-98.941 19.977-30.269 12.802-57.453 31.131-80.794 54.474-23.343 23.343-41.67 50.525-54.474 80.794-13.254 31.338-19.977 64.628-19.977 98.941s6.723 67.601 19.977 98.941c12.804 30.269 31.131 57.453 54.474 80.796 23.341 23.341 50.525 41.67 80.794 54.472 31.34 13.256 64.628 19.979 98.941 19.979 34.315 0 67.601-6.723 98.941-19.979 30.269-12.802 57.451-31.131 80.796-54.472 23.343-23.343 41.67-50.527 54.472-80.796 13.256-31.34 19.977-64.628 19.977-98.941s-6.721-67.603-19.977-98.941"/><path d="m86.338 309.435h51.688v6.478h-51.688z"/></g></svg>